<?xml version="1.0" encoding="UTF-8"?>
<svg width="200px" height="100px" viewBox="40 0 200 100" version="1.1" xmlns="http://www.w3.org/2000/svg">
    <g id="-1" stroke="none" stroke-width="1" fill="none" fill-rule="evenodd">
        <g id="" transform="translate(-120.000000, -3572.000000)">
            <g id="" transform="translate(120.000000, 3472.000000)">
                <g id="51" transform="translate(0.000000, 100.000000)">
                    <g id="zonff-logo" transform="translate(82.000000, 35.000000)" fill="#FFFFFF">
                        <polygon id="route"
                                 points="7.0550422 27.0932224 0.0143104304 27.0932224 18.3745927 0.214656456 25.4153244 0.214656456"></polygon>
                        <path d="M9.96721479,0.203923633 L0,0.203923633 L0,11.4483443 C0.698347977,9.90230369 1.53661353,8.42336374 2.50432532,7.02999894 C2.90859498,6.43253847 3.37726158,5.81361236 3.9031699,5.18037581 C4.44281478,4.53197019 5.01852756,3.91445253 5.62757676,3.33075268 C6.26223369,2.71991625 6.93498086,2.14993329 7.64176984,1.62423385 C8.37204648,1.08096595 9.15042988,0.605553318 9.96721479,0.203923633 L9.96721479,0.203923633 Z"
                              id="path-1"></path>
                        <path d="M40.0692052,27.0538687 C38.6308169,27.0367321 37.2184168,26.6682799 35.9549564,25.9805864 C34.5787526,25.2568504 33.3515979,24.2797392 32.3379951,23.1006123 C31.2410185,21.8181929 30.366707,20.3610071 29.7513848,18.7895951 C29.0836521,17.11602 28.7470964,15.3287513 28.7603875,13.5269344 C28.7495877,11.7317323 29.1050527,9.95318982 29.805049,8.30004964 C30.4563926,6.72830313 31.3670328,5.27708364 32.4989875,4.00692052 C33.5542086,2.82299027 34.8131759,1.83786957 36.2161218,1.09832553 C37.4912711,0.40756849 38.9159903,0.0391066391 40.3661466,0.0250432532 C39.8063189,0.695341616 39.3194081,1.4233093 38.9136379,2.19665107 C38.3782122,3.19357381 37.9270555,4.23350795 37.5648798,5.30559208 C37.1347918,6.56084131 36.7987604,7.84637073 36.5595721,9.15152025 C36.2895602,10.596622 36.1565986,12.0639905 36.1624577,13.5340896 C36.1626541,15.0081643 36.2822992,16.4797993 36.5202184,17.9345469 C36.7247019,19.2443161 37.0309176,20.5361637 37.436086,21.7983631 C37.7773073,22.8689051 38.197026,23.9128209 38.6918262,24.9216146 C39.0534466,25.6908116 39.5167119,26.4079704 40.0692052,27.0538687 L40.0692052,27.0538687 Z"
                              id="path-1"></path>
                        <path d="M45.7576013,0 C47.1961647,0.015831086 48.6088745,0.384364102 49.87185,1.07328228 C51.2581869,1.80638866 52.4947514,2.79297054 53.5174322,3.98187726 C54.6230973,5.26262039 55.5037304,6.72147141 56.1219305,8.29647203 C56.7867852,9.97077023 57.1220631,11.7577043 57.1093502,13.5591328 C57.1192864,15.3538964 56.7651199,17.1320314 56.0682664,18.7860175 C55.4181366,20.3583905 54.5073746,21.8098041 53.3743278,23.0791467 C52.3187743,24.2651522 51.0584642,25.2515872 49.6536159,25.9913192 C48.3786271,26.6824842 46.9538048,27.0509727 45.5035911,27.0646015 C46.0536313,26.4005509 46.5332183,25.6811705 46.9346342,24.918037 C47.4786751,23.917958 47.9359008,22.8730417 48.3012803,21.7947855 C48.7292719,20.5389051 49.0652625,19.2535315 49.306588,17.9488574 C49.5862018,16.4974904 49.7275538,15.0228781 49.7287457,13.5448224 C49.7343402,12.070518 49.6146561,10.598404 49.3709849,9.14436504 C49.1545329,7.8369735 48.8485234,6.54599573 48.4551174,5.28054882 C48.1248041,4.20755402 47.6972974,3.16692838 47.1779115,2.17160782 C46.7766378,1.40302868 46.3009222,0.675675111 45.7576013,0 L45.7576013,0 Z"
                              id="path-1"></path>
                        <path d="M62.7297717,18.3602822 C63.1630965,19.4925558 63.6908641,20.5863871 64.3074967,21.6302156 C64.9180564,22.6256404 65.5907894,23.5815666 66.3216898,24.4923017 C67.1157301,25.4894287 68.06092,26.3561546 69.1229565,27.0610239 L59.0627239,27.0610239 C59.8724134,26.4140424 60.5234353,25.5904752 60.9660112,24.653294 C61.4222306,23.7342584 61.7957745,22.7764534 62.0822248,21.7912079 C62.37251,20.6628771 62.588819,19.5167978 62.7297717,18.3602822 Z"
                              id="path-1"></path>
                        <path d="M23.7982458,21.7733199 C24.0849873,22.7579573 24.4572841,23.7156338 24.9108817,24.635406 C25.3544859,25.5729523 26.0067563,26.3965507 26.8177466,27.0431359 L16.757514,27.0431359 C17.8195506,26.3382665 18.7647404,25.4715407 19.5587808,24.4744136 C20.2885921,23.5636801 20.9601348,22.6077473 21.5693962,21.6123275 C22.1885895,20.569335 22.7176112,19.4753852 23.1506988,18.3423942 C23.2899009,19.4991807 23.5062316,20.6453749 23.7982458,21.7733199 L23.7982458,21.7733199 Z"
                              id="path-1"></path>
                        <polygon id="path-1"
                                 points="58.7622049 0.143104304 68.3179948 0.143104304 83.1221351 16.7074275 83.2294633 27.0574463"></polygon>
                        <path d="M82.8323489,6.82607531 C82.5613691,6.03850746 82.2126198,5.27988783 81.791265,4.5614497 C81.3087804,3.79037511 80.7681863,3.05722421 80.1741864,2.36837623 C79.4092793,1.49659054 78.5266705,0.735596341 77.5518,0.107328228 L86.0307301,0.107328228 C85.3955888,0.800543479 84.8521162,1.57246702 84.4136514,2.40415231 C84.0477929,3.09961925 83.7240328,3.8164312 83.4441198,4.55071687 C83.1922404,5.2954561 82.9879056,6.05543802 82.8323489,6.82607531 L82.8323489,6.82607531 Z"
                              id="path-1"></path>
                        <path d="M97.364591,0.143104304 L97.364591,27.0538687 L91.0787344,27.0538687 L91.0787344,0.143104304 L97.364591,0.143104304 Z M102.573588,11.7846394 C103.153528,11.274565 103.68856,10.7155941 104.172778,10.1138967 C104.781971,9.35986987 105.295114,8.53307171 105.700417,7.65250267 L105.700417,17.9273917 C105.310555,17.1233513 104.808229,16.3788976 104.208554,15.7164302 C103.712703,15.1707428 103.178262,14.6614096 102.609364,14.1923694 C102.047161,13.7578899 101.448696,13.3724782 100.82056,13.0403797 C101.439925,12.6729876 102.026442,12.25285 102.573588,11.7846394 L102.573588,11.7846394 Z M106.276411,2.74760264 C107.153327,3.76323545 107.95788,4.83916109 108.684141,5.96744948 C109.452752,7.19428236 110.124976,8.47892418 110.694757,9.80980005 L110.694757,0.107328228 L103.035099,0.107328228 C104.267388,0.782568848 105.365876,1.67736407 106.276411,2.74760264 L106.276411,2.74760264 Z"
                              id="shape-1"></path>
                        <path d="M122.525905,0.143104304 L122.525905,27.0538687 L116.236471,27.0538687 L116.236471,0.143104304 L122.525905,0.143104304 Z M127.720591,11.7846394 C128.298733,11.2726922 128.833614,10.7138793 129.319782,10.1138967 C129.926501,9.35811618 130.439449,8.53163351 130.847421,7.65250267 L130.847421,17.9273917 C130.455005,17.1248249 129.952911,16.3807143 129.355558,15.7164302 C128.857963,15.1724481 128.323646,14.6632331 127.756368,14.1923694 C127.193063,13.7594524 126.594733,13.3741282 125.967564,13.0403797 C126.58578,12.6712319 127.172153,12.2511978 127.720591,11.7846394 L127.720591,11.7846394 Z M131.419838,2.74760264 C133.261142,4.84935597 134.754015,7.23239714 135.841761,9.80622244 L135.841761,0.107328228 L128.18568,0.107328228 C129.421161,0.780900822 130.522285,1.6758669 131.434148,2.74760264 L131.419838,2.74760264 Z"
                              id="shape-1"></path>
                        <path d="M29.2254765,40.3375257 L29.2254765,41.9045179 L28.6208608,41.9045179 L28.6208608,37.5076381 L30.0519039,37.5076381 C30.470828,37.4861023 30.8867125,37.5894508 31.2468248,37.8045796 C31.5650152,38.0685853 31.7566647,38.4548815 31.7743873,38.8679554 C31.79211,39.2810293 31.6342514,39.6823209 31.3398426,39.9726098 C30.9579152,40.2397729 30.4951534,40.3662106 30.0304382,40.3303705 L29.2254765,40.3375257 Z M29.2254765,38.0120808 L29.2254765,39.8295055 L30.0197054,39.8295055 C30.3173335,39.8577094 30.6150204,39.7762908 30.8568656,39.6005386 C31.0336474,39.4275053 31.125255,39.1853994 31.1072981,38.9386812 C31.124983,38.6796927 31.0235559,38.4267835 30.8318223,38.2517805 C30.607142,38.079216 30.3274755,37.9940449 30.0447487,38.0120808 L29.2254765,38.0120808 Z"
                              id="shape-1"></path>
                        <path d="M42.3338308,41.9045179 L41.9009403,40.7918819 L39.8080398,40.7918819 L39.3536836,41.9045179 L38.6989815,41.9045179 L40.5056733,37.5076381 L41.2211948,37.5076381 L43.0099986,41.9045179 L42.3338308,41.9045179 Z M40.0083858,40.2874392 L41.6970166,40.2874392 L40.8634341,38.1408747 L40.0083858,40.2874392 Z"
                              id="shape-1"></path>
                        <path d="M52.9485925,41.9045179 L51.8753103,40.2337751 L50.8306488,40.2337751 L50.8306488,41.9045179 L50.2081451,41.9045179 L50.2081451,37.5076381 L51.6391882,37.5076381 C52.0978508,37.4765575 52.5534073,37.6027504 52.9307045,37.8653989 C53.2356971,38.1130992 53.4022614,38.4928657 53.3779055,38.8850171 C53.3844421,39.1502692 53.3067913,39.4107752 53.1560938,39.6291594 C52.9862676,39.8485756 52.7563182,40.0138906 52.4942364,40.1049812 L53.6784245,41.893785 L52.9485925,41.9045179 Z M50.8378041,38.0120808 L50.8378041,39.7257548 L51.6713866,39.7257548 C51.9500933,39.7422919 52.2262055,39.6641232 52.4548827,39.5039432 C52.6426538,39.3534368 52.7465108,39.121756 52.7339361,38.8814394 C52.7339361,38.301867 52.3761753,38.0120808 51.6606538,38.0120808 L50.8378041,38.0120808 Z"
                              id="shape-1"></path>
                        <polygon id="route"
                                 points="64.0606418 38.0621673 62.5795122 38.0621673 62.5795122 41.9045179 61.9570085 41.9045179 61.9570085 38.0621673 60.5009222 38.0621673 60.5009222 37.5076381 64.0606418 37.5076381"></polygon>
                        <polygon id="route"
                                 points="74.7719989 37.5076381 74.7719989 41.9045179 73.9849253 41.9045179 71.8669816 38.2231596 71.8669816 41.9045179 71.2981419 41.9045179 71.2981419 37.5076381 72.1209917 37.5076381 74.2174698 41.1603755 74.2174698 37.5076381"></polygon>
                        <polygon id="route"
                                 points="84.9717582 39.915368 83.0326949 39.915368 83.0326949 41.3678767 85.147061 41.3678767 85.147061 41.893785 82.4030359 41.893785 82.4030359 37.5076381 85.147061 37.5076381 85.147061 38.0299688 83.0291173 38.0299688 83.0291173 39.4109254 84.9681806 39.4109254"></polygon>
                        <path d="M95.3647083,41.9045179 L94.291426,40.2337751 L93.2467646,40.2337751 L93.2467646,41.9045179 L92.6242609,41.9045179 L92.6242609,37.5076381 L94.0553039,37.5076381 C94.5150213,37.4771669 94.9715096,37.6032686 95.3503979,37.8653989 C95.848836,38.3183469 95.9429745,39.0668999 95.5722095,39.6291594 C95.4023834,39.8485756 95.172434,40.0138906 94.9103521,40.1049812 L96.0945403,41.893785 L95.3647083,41.9045179 Z M93.2539198,38.0120808 L93.2539198,39.7257548 L94.09108,39.7257548 C94.3698484,39.7428623 94.6461453,39.6646413 94.8745761,39.5039432 C95.0623472,39.3534368 95.1662041,39.121756 95.1536295,38.8814394 C95.1536295,38.301867 94.7958687,38.0120808 94.0803472,38.0120808 L93.2539198,38.0120808 Z"
                              id="shape-1"></path>
                        <path d="M105.897185,38.6059637 C105.8149,38.1551851 105.449984,37.9262182 104.79886,37.9262182 C104.550293,37.9103274 104.302285,37.964889 104.083338,38.0836329 C103.924695,38.172503 103.828291,38.3418981 103.832905,38.5236787 C103.829285,38.6115029 103.847735,38.6988339 103.88657,38.7776888 C103.930139,38.8536072 103.993109,38.9165773 104.069028,38.9601468 C104.356178,39.1214451 104.664443,39.2418611 104.984895,39.3179076 C105.42718,39.4160959 105.844752,39.6035773 106.212015,39.8688591 C106.44941,40.0750425 106.580901,40.377473 106.569775,40.6917089 C106.57372,41.0677473 106.393307,41.4218922 106.086798,41.6397749 C105.729578,41.8935245 105.297298,42.0195535 104.859679,41.9975357 C104.427257,42.0133711 104.001466,41.8877688 103.64687,41.6397749 C103.329744,41.4105665 103.120305,41.0615003 103.067297,40.6738209 L103.707689,40.6738209 C103.73936,40.9167381 103.868519,41.1363085 104.06545,41.2820141 C104.553797,41.5631117 105.154828,41.5631117 105.643175,41.2820141 C105.916538,41.0938844 106.018486,40.7385673 105.886452,40.4341211 C105.841366,40.3513089 105.776158,40.2811793 105.696839,40.2301975 C105.339116,40.0355516 104.956294,39.8910905 104.55916,39.8008846 C104.181789,39.720792 103.827227,39.55696 103.521654,39.3214852 C103.315875,39.1229665 103.206252,38.8449949 103.221135,38.5594548 C103.21232,38.2302596 103.373065,37.9195753 103.64687,37.736605 C103.992802,37.501741 104.406449,37.3873281 104.823903,37.4110427 C105.242653,37.3925255 105.657068,37.5023703 106.011669,37.7258722 C106.307929,37.9298 106.504157,38.2494825 106.551887,38.6059637 L105.897185,38.6059637 Z"
                              id="path-1"></path>
                    </g>
                </g>
            </g>
        </g>
    </g>
</svg>
