<?xml version="1.0" encoding="UTF-8"?>
<svg xmlns="http://www.w3.org/2000/svg" viewBox="0 0 268.71 70.97">
    <defs>
        <style>.cls-1{fill:#fff;}.cls-2{fill:#1a6634;}.cls-3{fill:#7db042;}</style>
    </defs>
    <g id="Layer_2">
        <g id="Layer_1-2">
            <path fill="#fff"
                  d="M151.12,36.16a7.79,7.79,0,0,1-.61,3.07,7.51,7.51,0,0,1-1.69,2.45,8,8,0,0,1-5.59,2.23,7.94,7.94,0,0,1-5.56-2.24A7.59,7.59,0,0,1,136,39.2a7.71,7.71,0,0,1-.61-3,7.34,7.34,0,0,1,.63-3,8,8,0,0,1,1.69-2.48A7.93,7.93,0,0,1,140.2,29a7.73,7.73,0,0,1,3-.6,8,8,0,0,1,5.59,2.23,7.45,7.45,0,0,1,1.69,2.46A7.9,7.9,0,0,1,151.12,36.16Z"/>
            <path fill="#000"
                  d="M143.23,42.21a6.14,6.14,0,0,1-4.37-1.76,5.92,5.92,0,0,1-1.32-1.92,6,6,0,0,1-.47-2.37h.85a4.85,4.85,0,0,0,.41,2,4.78,4.78,0,0,0,1.12,1.65,5.37,5.37,0,0,0,3.78,1.52Z"/>
            <path fill="#000"
                  d="M149.42,36.16h-.85a5,5,0,0,0-.41-2.06,4.72,4.72,0,0,0-1.11-1.63,5.33,5.33,0,0,0-1.72-1.12,5.42,5.42,0,0,0-2.1-.4V30.1a6.19,6.19,0,0,1,2.43.47,6.26,6.26,0,0,1,2,1.28,5.68,5.68,0,0,1,1.3,1.91A6,6,0,0,1,149.42,36.16Z" />
            <path fill="#fff" d="M157.88,26.2h-3.83V22.37h3.83Zm0,17.33h-3.72V28.75h3.72Z"/>
            <path fill="#fff"
                  d="M175.26,43.53h-3.67v-8.8a3.57,3.57,0,0,0-.25-1.4,2.89,2.89,0,0,0-.65-1,2.63,2.63,0,0,0-.94-.59,3.07,3.07,0,0,0-1.08-.19,5.06,5.06,0,0,0-1.67.29,4.22,4.22,0,0,0-1.49.94V43.53h-3.67V28.78h3.67l0,1.1a3.91,3.91,0,0,1,.82-.62,7.58,7.58,0,0,1,1-.47,6.61,6.61,0,0,1,1.08-.29,5.51,5.51,0,0,1,1.06-.1,6.77,6.77,0,0,1,2.15.35,5.1,5.1,0,0,1,3.13,3,7.32,7.32,0,0,1,.48,2.78Z" />
            <path class="cls-2"
                  d="M200.84,43.53H196.5l-1.88-4.08h-9.91l-1.91,4.08h-4.34l9.65-20.42h3.09Zm-7.78-7.37-3.4-7.36-3.44,7.36Zm22.82,7.37h-3.76v-.76a4.62,4.62,0,0,1-1.55.85,5.83,5.83,0,0,1-1.79.27,6.48,6.48,0,0,1-2.86-.63,6.91,6.91,0,0,1-2.24-1.68,7.82,7.82,0,0,1-1.47-2.46,8.43,8.43,0,0,1-.53-3,7.8,7.8,0,0,1,.6-3.08,8.17,8.17,0,0,1,1.6-2.46A7.47,7.47,0,0,1,206.15,29a6.12,6.12,0,0,1,2.63-.6,6.7,6.7,0,0,1,1.84.26,4.91,4.91,0,0,1,1.53.71v-7h3.73Zm-3.7-4v-7.1a5.4,5.4,0,0,0-.59-.34,4.7,4.7,0,0,0-.7-.29,5.65,5.65,0,0,0-.71-.17,3.19,3.19,0,0,0-.64-.07,4.3,4.3,0,0,0-1.68.32,3.7,3.7,0,0,0-1.32.92,4,4,0,0,0-.87,1.44,5.32,5.32,0,0,0-.31,1.87,5.08,5.08,0,0,0,.31,1.82,4.32,4.32,0,0,0,.84,1.43,3.69,3.69,0,0,0,1.3.93,4.06,4.06,0,0,0,4.37-.76Zm21.08,4h-3.75v-.76a4.77,4.77,0,0,1-1.56.85,5.83,5.83,0,0,1-1.79.27,6.48,6.48,0,0,1-2.86-.63,7.13,7.13,0,0,1-2.24-1.68,7.82,7.82,0,0,1-1.47-2.46,8.42,8.42,0,0,1-.52-3,7.8,7.8,0,0,1,.6-3.08,8.14,8.14,0,0,1,1.59-2.46A7.47,7.47,0,0,1,223.53,29a6.12,6.12,0,0,1,2.63-.6,6.7,6.7,0,0,1,1.84.26,4.91,4.91,0,0,1,1.53.71v-7h3.73Zm-3.7-4v-7.1a4.59,4.59,0,0,0-.59-.34,4.7,4.7,0,0,0-.7-.29,5.65,5.65,0,0,0-.71-.17,3.19,3.19,0,0,0-.64-.07,4.3,4.3,0,0,0-1.68.32,3.79,3.79,0,0,0-1.32.92,4,4,0,0,0-.87,1.44,5.32,5.32,0,0,0-.31,1.87,5.08,5.08,0,0,0,.31,1.82,4.32,4.32,0,0,0,.84,1.43,3.69,3.69,0,0,0,1.3.93,4.06,4.06,0,0,0,4.37-.76ZM240.79,26.2H237V22.37h3.83Zm0,17.33H237V28.75h3.73ZM258,41.31a7.3,7.3,0,0,1-2.71,1.94,8.5,8.5,0,0,1-3.31.66,7.91,7.91,0,0,1-3-.58,7.78,7.78,0,0,1-2.48-1.62,7.46,7.46,0,0,1-1.66-2.47,7.7,7.7,0,0,1-.61-3.08,7.55,7.55,0,0,1,.61-3,7.65,7.65,0,0,1,1.65-2.47A7.47,7.47,0,0,1,249,29a7.89,7.89,0,0,1,3.07-.6,8.43,8.43,0,0,1,3.2.61,7.14,7.14,0,0,1,2.64,1.86l-2.48,2.53A5,5,0,0,0,254,32.17a3.76,3.76,0,0,0-2-.48,3.67,3.67,0,0,0-1.6.36,4.44,4.44,0,0,0-1.33,1,4.68,4.68,0,0,0-.9,4.89,4.68,4.68,0,0,0,.89,1.42,4.2,4.2,0,0,0,1.33.95,3.75,3.75,0,0,0,1.61.36,3.86,3.86,0,0,0,2-.52,4.38,4.38,0,0,0,1.43-1.34Zm10.67,1.89a4.08,4.08,0,0,1-1.3.53,6.3,6.3,0,0,1-1.48.18,6.43,6.43,0,0,1-2.2-.32,3.14,3.14,0,0,1-1.43-1,4.09,4.09,0,0,1-.78-1.68,10.58,10.58,0,0,1-.24-2.4V32.07h-1.94V30.41a6.85,6.85,0,0,0,2.9-2.19,8.69,8.69,0,0,0,1.52-3.78H265v4.31h3.72v3.32H265v6.71a2.41,2.41,0,0,0,.14.92,1.28,1.28,0,0,0,.37.56,1.15,1.15,0,0,0,.52.28,2.07,2.07,0,0,0,.62.08,4.55,4.55,0,0,0,1.05-.15,2.58,2.58,0,0,0,1-.51Z"/>
            <path fill="#fff"
                  d="M98.39,37.69a5.51,5.51,0,0,1-.52,2.36,6.13,6.13,0,0,1-1.39,1.86,6.38,6.38,0,0,1-2,1.21,6.61,6.61,0,0,1-2.38.44l-8.25,0V23.11h7.35a7.46,7.46,0,0,1,2.46.4,5.73,5.73,0,0,1,2,1.15A5.31,5.31,0,0,1,97,26.49a6.17,6.17,0,0,1,.47,2.44,5.08,5.08,0,0,1-.51,2.22A5.62,5.62,0,0,1,95.56,33a4.52,4.52,0,0,1,1.18.84,5.28,5.28,0,0,1,1.46,2.46A5.28,5.28,0,0,1,98.39,37.69ZM93.52,29a2.72,2.72,0,0,0-.29-1.28,2.57,2.57,0,0,0-.75-.89,3.22,3.22,0,0,0-1.08-.54,4.54,4.54,0,0,0-1.28-.17H87.8v5.61l1.15,0h1.17a5.41,5.41,0,0,0,1.28-.16,3.12,3.12,0,0,0,1.08-.48,2.31,2.31,0,0,0,.75-.86A2.61,2.61,0,0,0,93.52,29Zm.76,8.45A2.86,2.86,0,0,0,94,36.28a2.62,2.62,0,0,0-.67-.9,3.12,3.12,0,0,0-1-.58,3.58,3.58,0,0,0-1.19-.2c-.58,0-1.15,0-1.71,0H87.8v5.64h3A5.51,5.51,0,0,0,92,40.09a3.47,3.47,0,0,0,1.14-.5,2.67,2.67,0,0,0,.8-.87A2.4,2.4,0,0,0,94.28,37.46Z"/>
            <path fill="#fff" d="M105.15,26.2h-3.83V22.37h3.83Zm-.05,17.33h-3.72V28.75h3.72Z"/>
            <path fill="#fff"
                  d="M117.33,43.2a4.08,4.08,0,0,1-1.3.53,6.3,6.3,0,0,1-1.48.18,6.43,6.43,0,0,1-2.2-.32,3.14,3.14,0,0,1-1.43-1,4.09,4.09,0,0,1-.78-1.68,10.58,10.58,0,0,1-.24-2.4V32.07H108V30.41a6.85,6.85,0,0,0,2.9-2.19,8.69,8.69,0,0,0,1.52-3.78h1.2v4.31h3.72v3.32h-3.72v6.71a2.41,2.41,0,0,0,.14.92,1.28,1.28,0,0,0,.37.56,1.15,1.15,0,0,0,.52.28,2.07,2.07,0,0,0,.62.08,4.55,4.55,0,0,0,1-.15,2.58,2.58,0,0,0,1-.51Z"/>
            <path fill="#fff"
                  d="M133.43,41.31a7.35,7.35,0,0,1-2.7,1.94,8.55,8.55,0,0,1-3.32.66,8,8,0,0,1-3-.58,7.78,7.78,0,0,1-2.48-1.62,7.62,7.62,0,0,1-1.66-2.47,7.87,7.87,0,0,1-.61-3.08,7.73,7.73,0,0,1,.61-3,8,8,0,0,1,1.65-2.47A7.51,7.51,0,0,1,124.35,29a7.8,7.8,0,0,1,3.06-.6,8.43,8.43,0,0,1,3.2.61,7.06,7.06,0,0,1,2.64,1.86l-2.47,2.53a5,5,0,0,0-1.37-1.23,4,4,0,0,0-3.55-.12,4.28,4.28,0,0,0-1.32,1,4.38,4.38,0,0,0-.91,1.42,4.73,4.73,0,0,0,0,3.47,4.68,4.68,0,0,0,.89,1.42,4.2,4.2,0,0,0,1.33.95,3.75,3.75,0,0,0,1.61.36,3.86,3.86,0,0,0,2-.52,4.28,4.28,0,0,0,1.43-1.34Z"/>
            <path fill="#fff" d="M90.46,49.84H88v7.3H86.29v-7.3H83.84V48.31h6.62Z"/>
            <path fill="#fff" d="M115.38,57.14h-1.71V53.23h-3.48v3.91h-1.72V48.31h1.72v3.5h3.48v-3.5h1.71Z"/>
            <path fill="#fff"
                  d="M142.87,57.14H141l-.82-1.77h-4.29l-.83,1.77h-1.88l4.18-8.84h1.34ZM139.5,54,138,50.76,136.54,54Z"/>
            <path fill="#fff" d="M162.37,57.14h-1.71V48.31h1.71Z"/>
            <path fill="#fff" d="M190.32,57.14h-6V48.31h1.75v7.17h4.23Z"/>
            <path fill="#fff"
                  d="M217.14,57.14h-1.88l-.82-1.77h-4.29l-.82,1.77h-1.88l4.17-8.84H213ZM213.77,54l-1.47-3.19L210.81,54Z"/>
            <path fill="#fff" d="M242.28,57.14H240.6l-4-6.2v6.2h-1.68V48.3h1.92l3.75,5.77V48.3h1.68Z"/>
            <path fill="#fff"
                  d="M268.71,52.72a4.86,4.86,0,0,1-.31,1.72,4.47,4.47,0,0,1-.87,1.4,3.72,3.72,0,0,1-1.32.95,3.88,3.88,0,0,1-1.67.35h-3.69V48.3h3.69a4,4,0,0,1,1.67.35,4,4,0,0,1,1.32,1A4.4,4.4,0,0,1,268.4,51,4.85,4.85,0,0,1,268.71,52.72Zm-1.74,0a3.08,3.08,0,0,0-.19-1.18,2.72,2.72,0,0,0-.57-1,2.67,2.67,0,0,0-.92-.66,3.26,3.26,0,0,0-1.24-.23h-1.49v6h1.49a3.07,3.07,0,0,0,1.21-.22,2.6,2.6,0,0,0,.92-.63,3,3,0,0,0,.58-.95A3.87,3.87,0,0,0,267,52.68Z"/>
            <circle class="cls-3" cx="35.49" cy="35.49" r="35.49"
                    transform="translate(-3.32 3.67) rotate(-5.65)" />
            <path class="cls-2" d="M65.59,35.31A30.29,30.29,0,1,1,35.31,5,30.28,30.28,0,0,1,65.59,35.31Z"/>
            <path class="cls-1"
                  d="M53,31a8.62,8.62,0,0,0-8.62-8.62H39.48V15.84H31.23v6.54H17.76v9.71h0V49.34H31.23v6.54h8.25V49.34h4.85A8.62,8.62,0,0,0,53,40.72h0a8.6,8.6,0,0,0-1.5-4.86A8.65,8.65,0,0,0,53,31ZM43.11,41.81H26V39.62h17.1a1.1,1.1,0,1,1,0,2.19Zm0-9.72H26V29.91h17.1a1.09,1.09,0,1,1,0,2.18Z"/>
        </g>
    </g>
</svg>
