<svg width="338" height="47" viewBox="0 0 338 47" fill="none" xmlns="http://www.w3.org/2000/svg">
	<path d="M70.2574 37.5032C70.7519 37.9977 71.37 38.4303 72.0499 38.7394C72.7298 39.0484 73.4097 39.1721 74.1515 39.1102H101.533V35.4017H74.1515C73.657 35.4017 73.2243 35.2162 72.8535 34.9072C72.5444 34.5363 72.359 34.1037 72.359 33.6092V11.6049C72.359 11.3576 72.4208 11.1722 72.4826 10.925C72.5444 10.7395 72.7298 10.4923 72.8535 10.3687C73.0389 10.1832 73.2243 10.0596 73.4097 9.936C73.657 9.81238 73.8424 9.81239 74.0897 9.81239H101.533V6.1038H74.1515C73.4097 6.1038 72.7298 6.22741 72.0499 6.53646C71.37 6.7837 70.7519 7.21638 70.2574 7.71086C69.763 8.20533 69.3303 8.82343 69.0831 9.50334C68.8358 10.1832 68.6504 10.8632 68.6504 11.6049V33.6092C68.6504 34.3509 68.774 35.0308 69.0213 35.7107C69.3303 36.3906 69.763 37.0087 70.2574 37.5032ZM122.796 6.1038V39.1102H152.959V35.4017H126.566V24.4613H147.767V20.6909H126.566V9.75058H152.959V6.04199H122.796V6.1038ZM174.16 39.1102V6.16561H201.665C203.149 6.16561 204.508 6.7837 205.559 7.77266C206.61 8.82343 207.166 10.1832 207.166 11.6667V21.309C207.166 22.0507 207.043 22.7306 206.734 23.4106C206.486 24.0905 206.054 24.7086 205.559 25.203C205.065 25.6975 204.447 26.1302 203.767 26.3774C203.087 26.6247 202.407 26.8101 201.665 26.7483H196.597L206.981 38.9866V39.0484H202.098L191.776 26.7483L177.868 26.6865V38.9866H174.16V39.1102ZM179.661 23.1015H201.665C201.912 23.1015 202.098 23.0397 202.345 22.9779C202.53 22.9161 202.778 22.7306 202.901 22.607C203.087 22.4216 203.21 22.2362 203.272 22.0507C203.334 21.8653 203.396 21.6181 203.396 21.3708V11.6667C203.396 11.4194 203.334 11.234 203.272 10.9868C203.21 10.8013 203.025 10.5541 202.901 10.4305C202.778 10.2451 202.53 10.1214 202.345 9.99782C202.16 9.8742 201.912 9.8742 201.665 9.8742H179.661C179.414 9.8742 179.166 9.93601 178.981 9.99782C178.734 10.1214 178.548 10.2451 178.425 10.4305C178.239 10.6159 178.116 10.8013 178.054 10.9868C177.992 11.1722 177.93 11.4194 177.93 11.6667V21.309C177.93 21.5562 177.992 21.7417 178.054 21.9889C178.116 22.1743 178.239 22.4216 178.425 22.5452C178.734 22.9161 179.166 23.1015 179.661 23.1015ZM241.409 9.81239V39.1102H245.117V9.81239H259.766V6.1038H226.76V9.81239H241.409V9.81239ZM279.36 6.1038H283.13V39.1102H279.36V6.1038ZM305.753 6.1038V39.1102H309.523V24.4613H320.155L332.455 39.1102H337.276V39.0484L323.43 22.607L337.214 6.16561V6.1038H332.455L320.155 20.7527H309.523V6.1038H305.753Z" fill="white"/>
	<path d="M283.192 39.1717H279.298V6.0416H283.192V39.1717ZM279.421 39.048H283.068V6.16521H279.421V39.048ZM337.337 39.1717H332.454L320.154 24.5845H309.585V39.2335H305.691V6.1034H309.585V20.7523H320.092L332.392 6.1034H337.275V6.22702L323.492 22.6684L337.337 39.1098V39.1717ZM332.516 39.048H337.214L323.368 22.6066L323.43 22.5448L337.152 6.16521H332.516L320.216 20.8141H309.461V6.16521H305.814V39.048H309.461V24.3991H320.216L332.516 39.048ZM245.179 39.1717H241.347V9.8738H226.698V6.0416H259.828V9.8738H245.179V39.1717V39.1717ZM241.47 39.048H245.055V9.75018H259.704V6.16521H226.821V9.75018H241.47V39.048ZM207.042 39.1717H202.036L191.713 26.9333L177.93 26.8715V39.2335H174.098V6.1034H201.665C203.148 6.1034 204.57 6.7215 205.559 7.77226C206.609 8.82303 207.166 10.2447 207.228 11.6663V21.3704C207.228 22.1121 207.104 22.8539 206.795 23.5338C206.486 24.2137 206.115 24.8318 205.559 25.3262C205.064 25.8207 204.446 26.2534 203.766 26.5624C203.086 26.8715 202.345 26.9951 201.603 26.9951H196.72L206.98 39.1717H207.042ZM202.097 39.048H206.857L196.473 26.7479H201.665C202.345 26.7479 203.086 26.6243 203.766 26.3152C204.446 26.068 205.002 25.6353 205.497 25.1408C205.991 24.6463 206.424 24.0283 206.671 23.3483C206.919 22.6684 207.104 21.9885 207.104 21.2468V11.6045C207.104 10.1829 206.486 8.82303 205.497 7.77226C204.508 6.78331 203.086 6.16521 201.665 6.16521H174.221V39.048H177.806V26.6861L191.775 26.7479L202.097 39.048ZM153.02 39.1717H122.734V6.0416H153.02V9.8738H126.628V20.6287H147.828V24.5227H126.628V35.3394H153.02V39.1717ZM122.919 39.048H152.897V35.4631H126.504V24.3991H147.705V20.7523H126.504V9.68837H152.897V6.1034H122.919V39.048ZM101.656 39.1717H74.1511C73.4093 39.1717 72.6676 39.048 71.9877 38.739C71.3078 38.4299 70.6897 38.0591 70.1952 37.5028C69.7008 37.0083 69.2681 36.3902 68.959 35.7103C68.65 35.0304 68.5264 34.2887 68.5264 33.547V11.5427C68.5264 10.8009 68.65 10.0592 68.959 9.37932C69.2681 8.69941 69.6389 8.08132 70.1952 7.58684C70.6897 7.09236 71.3078 6.65969 71.9877 6.35064C72.6676 6.0416 73.4093 5.91797 74.1511 5.91797H101.656V9.75018H74.1511C73.9038 9.75018 73.7184 9.81199 73.4712 9.8738C73.2857 9.93561 73.0385 10.121 72.9149 10.2447C72.7294 10.3683 72.6058 10.5537 72.544 10.8009C72.4822 10.9864 72.4204 11.2336 72.4204 11.419V33.4233C72.4204 33.6706 72.4822 33.856 72.544 34.1032C72.6058 34.2887 72.7294 34.5359 72.9149 34.6595C73.1003 34.845 73.2857 34.9686 73.4712 35.0304C73.6566 35.0922 73.9038 35.154 74.1511 35.154H101.656V39.1717ZM70.3189 37.441C70.8133 37.9355 71.4314 38.3681 72.1113 38.6154C72.7912 38.8626 73.4712 39.048 74.2129 38.9862H101.533V35.4013H74.1511C73.6566 35.4013 73.1621 35.2158 72.7912 34.9068C72.4204 34.5359 72.235 34.0414 72.235 33.547V11.5427C72.235 11.2954 72.2968 11.0482 72.3586 10.8628C72.4204 10.6155 72.6058 10.4301 72.7294 10.2447C72.9149 10.0592 73.1003 9.93561 73.3475 9.81199C73.5948 9.68837 73.842 9.68837 74.0893 9.68837H101.409V6.1034H74.1511C73.4093 6.1034 72.7294 6.22702 72.0495 6.53607C71.3696 6.78331 70.8133 7.21598 70.257 7.71046C69.7626 8.20494 69.3299 8.82303 69.0827 9.50294C68.8354 10.1828 68.65 10.8628 68.65 11.6045V33.6088C68.65 34.3505 68.7736 35.0304 69.0208 35.7103C69.3917 36.3902 69.8244 36.9465 70.3189 37.441ZM201.665 23.1629H179.66C179.166 23.1629 178.671 22.9775 178.301 22.6066C178.115 22.4212 177.992 22.2358 177.93 21.9885C177.868 21.7413 177.806 21.5558 177.806 21.3086V11.6663C177.806 11.419 177.868 11.1718 177.93 10.9864C177.992 10.7391 178.177 10.5537 178.301 10.3683C178.486 10.1829 178.671 10.0592 178.919 9.93561C179.166 9.81199 179.413 9.81199 179.66 9.81199H201.665C201.912 9.81199 202.159 9.8738 202.345 9.93561C202.592 10.0592 202.777 10.1829 202.901 10.3683C203.086 10.5537 203.21 10.7391 203.272 10.9864C203.334 11.2336 203.395 11.419 203.395 11.6663V21.3086C203.395 21.5558 203.334 21.8031 203.272 21.9885C203.21 22.2358 203.025 22.4212 202.901 22.6066C202.715 22.792 202.53 22.9157 202.283 22.9775C202.097 23.1011 201.912 23.1629 201.665 23.1629ZM179.66 9.93561C179.413 9.93561 179.228 9.99742 178.981 10.0592C178.795 10.121 178.548 10.3065 178.424 10.4301C178.239 10.6155 178.115 10.801 178.053 10.9864C177.992 11.1718 177.93 11.419 177.93 11.6045V21.2468C177.93 21.4941 177.992 21.6795 178.053 21.8649C178.115 22.0503 178.239 22.2358 178.424 22.4212C178.733 22.7302 179.228 22.9157 179.66 22.9157H201.665C201.912 22.9157 202.097 22.8539 202.283 22.7921C202.468 22.7302 202.654 22.6066 202.839 22.4212C203.025 22.2976 203.148 22.1122 203.21 21.8649C203.272 21.6795 203.334 21.4322 203.334 21.2468V11.6045C203.334 11.3572 203.272 11.1718 203.21 10.9864C203.148 10.801 203.025 10.6155 202.839 10.4301C202.715 10.2447 202.53 10.121 202.283 10.0592C202.097 9.99742 201.85 9.93561 201.603 9.93561H179.66Z" fill="white"/>
	<path d="M20.9718 0L35.244 4.35141C35.447 4.4194 35.6499 4.62337 35.7175 4.82734C35.7852 5.03131 35.8528 5.23529 35.7852 5.50725C35.7175 5.71122 35.5822 5.91521 35.3793 6.05119C35.1764 6.18717 34.9735 6.18716 34.7705 6.18716L20.9718 2.03972L7.24069 6.18716C7.03776 6.25515 6.7672 6.18717 6.63192 6.05119C6.42899 5.91521 6.29371 5.77921 6.22607 5.50725C6.15843 5.30328 6.15843 5.03131 6.29371 4.82734C6.36135 4.62337 6.56427 4.48739 6.7672 4.35141L20.9718 0Z" fill="white"/>
	<path d="M41.6026 6.86763C41.6026 6.66366 41.4673 6.4597 41.332 6.32372C41.1967 6.18774 40.9938 6.11975 40.7909 6.05176C40.5879 6.05176 40.385 6.05174 40.2497 6.11973C40.0468 6.18772 39.9115 6.32371 39.8439 6.52768L31.5917 22.7775H10.4201L2.16789 6.59568C2.10025 6.45969 1.96497 6.32371 1.76205 6.18773C1.62676 6.11974 1.42384 6.05176 1.22092 6.05176C1.018 6.05176 0.815073 6.18774 0.679791 6.32372C0.54451 6.4597 0.409227 6.66366 0.409227 6.86763C-0.334824 12.1029 -0.0642567 17.4742 1.22092 22.6415C3.25015 30.7324 8.39086 40.1831 20.5662 46.1663L20.9721 46.3703L21.3779 46.1663C33.5533 40.1831 38.7616 30.7324 40.7909 22.6415C42.076 17.4742 42.3466 12.1709 41.6026 6.86763ZM2.97958 22.2336C2.03261 18.2901 1.62677 14.2107 1.89733 10.1312L9.06727 24.2053L18.8076 43.1747C8.99963 37.4635 4.73825 29.3046 2.97958 22.2336ZM20.9721 43.3787L11.3671 24.6812H30.5771L20.9721 43.3787ZM38.9646 22.2336C37.2059 29.3726 32.8769 37.5315 23.0689 43.1747L32.8769 24.2053L40.0468 10.1312C40.3174 14.1427 39.9792 18.2221 38.9646 22.2336Z" fill="white"/>
</svg>
