<svg xmlns="http://www.w3.org/2000/svg" xmlns:xlink="http://www.w3.org/1999/xlink" width="96" height="96" viewBox="0 0 96 96">
  <defs>
    <style>
      .cls-1 {
        fill: #fff;
        stroke: #707070;
      }

      .cls-2 {
        clip-path: url(#clip-path);
      }

      .cls-3 {
        fill: url(#linear-gradient);
      }

      .cls-4 {
        fill: url(#linear-gradient-2);
      }

      .cls-5 {
        fill: url(#linear-gradient-3);
      }

      .cls-6 {
        fill: url(#linear-gradient-5);
      }
    </style>
    <clipPath id="clip-path">
      <rect id="矩形_518" data-name="矩形 518" class="cls-1" width="96" height="96" transform="translate(904 1480)"/>
    </clipPath>
    <linearGradient id="linear-gradient" y1="0.5" x2="1" y2="0.5" gradientUnits="objectBoundingBox">
      <stop offset="0" stop-color="#ec6cff"/>
      <stop offset="1" stop-color="#7847ff"/>
    </linearGradient>
    <linearGradient id="linear-gradient-2" y1="0.5" x2="1" y2="0.5" gradientUnits="objectBoundingBox">
      <stop offset="0.02" stop-color="#ffec75"/>
      <stop offset="1" stop-color="#ff55c9"/>
    </linearGradient>
    <linearGradient id="linear-gradient-3" y1="0.5" x2="1" y2="0.5" gradientUnits="objectBoundingBox">
      <stop offset="0" stop-color="#ff55c9"/>
      <stop offset="0.98" stop-color="#ffec75"/>
    </linearGradient>
    <linearGradient id="linear-gradient-5" y1="0.5" x2="1" y2="0.5" gradientUnits="objectBoundingBox">
      <stop offset="0" stop-color="#4be2ff"/>
      <stop offset="0.995" stop-color="#877cff"/>
    </linearGradient>
  </defs>
  <g id="icon-an" class="cls-2" transform="translate(-904 -1480)">
    <g id="组_820" data-name="组 820" transform="translate(-7.89 -7.926)">
      <path id="路径_3745" data-name="路径 3745" class="cls-3" d="M952.694,1570.926s3.533-6.382,1.938-10.485c0,0-1.254-5.47-6.952-4.444,0,0-10.725,2.678-10.37-2.849,0,0,1.139-3.191-.8-5.129a1.9,1.9,0,0,1,0-2.621s-2.495-2.393-.507-3.533v-1.823s-5.647-1.026-3.71-3.875c0,0,6.632-7.631,5.458-10.646a7.719,7.719,0,0,1-.712-3.5c.476-5.144,3.239-16.34,18.005-20.154.194-.05.388-.1.584-.147,23.082-5.664,41.219,20.26,28.027,40.03-1.056,1.581-2.182,3.146-3.384,4.677,0,0-4.786,4.558,1.026,14.245,0,0,4.217,6.724,3.761,10.257Z"/>
      <path id="路径_3746" data-name="路径 3746" class="cls-4" d="M972.478,1514.815a10.842,10.842,0,0,0-1.022-2.473l.882-2.01-2.966-2.965-2.009.882a10.8,10.8,0,0,0-2.474-1.022l-.8-2.048H959.9l-.8,2.048a10.784,10.784,0,0,0-2.474,1.022l-2.01-.882-2.965,2.965.882,2.01a10.842,10.842,0,0,0-1.022,2.473l-2.048.8v4.194l2.048.8a10.842,10.842,0,0,0,1.022,2.473l-.882,2.01,2.965,2.965,2.01-.882a10.778,10.778,0,0,0,2.474,1.022l.8,2.048h4.194l.8-2.048a10.8,10.8,0,0,0,2.474-1.022l2.009.882,2.966-2.965-.882-2.01a10.842,10.842,0,0,0,1.022-2.473l2.047-.8v-4.194Zm-10.485,8.014a5.118,5.118,0,1,1,5.118-5.118A5.118,5.118,0,0,1,961.993,1522.829Z"/>
      <path id="路径_3747" data-name="路径 3747" class="cls-5" d="M967.448,1512.256a7.715,7.715,0,1,0,0,10.91A7.717,7.717,0,0,0,967.448,1512.256Zm-1.839,9.072a5.115,5.115,0,1,1,0-7.234A5.1,5.1,0,0,1,965.609,1521.328Z"/>
      <path id="路径_3748" data-name="路径 3748" class="cls-5" d="M973.717,1534.485a4.931,4.931,0,0,0,0-1.214l.715-.692-.735-1.754-.995.025a4.918,4.918,0,0,0-.863-.854l.017-1-1.761-.72-.687.722a4.884,4.884,0,0,0-1.214,0l-.692-.716-1.754.736.025.995a4.846,4.846,0,0,0-.854.863l-1-.017-.72,1.76.722.688a4.873,4.873,0,0,0,0,1.213l-.716.692.736,1.755,1-.025a4.9,4.9,0,0,0,.862.853l-.016,1,1.76.721.687-.723a4.931,4.931,0,0,0,1.214,0l.692.715,1.754-.735-.024-.995a4.946,4.946,0,0,0,.853-.863l1,.017.721-1.761Zm-5.778,1.563a2.322,2.322,0,1,1,3.028-1.269A2.321,2.321,0,0,1,967.939,1536.048Z"/>
      <path id="路径_3749" data-name="路径 3749" class="cls-6" d="M983.037,1525.165a4.931,4.931,0,0,0,0-1.214l.715-.692-.735-1.754-.995.025a4.88,4.88,0,0,0-.863-.854l.017-1-1.76-.721-.688.723a4.87,4.87,0,0,0-1.213,0l-.693-.716-1.754.736.025.995a4.914,4.914,0,0,0-.854.862l-1-.016-.72,1.76.722.687a4.928,4.928,0,0,0,0,1.214l-.715.692.735,1.754.995-.025a4.927,4.927,0,0,0,.863.855l-.017,1,1.76.721.688-.722a4.971,4.971,0,0,0,1.213,0l.693.715,1.754-.735-.025-.995a4.907,4.907,0,0,0,.854-.863l1,.017.72-1.761Zm-5.778,1.562a2.321,2.321,0,1,1,3.028-1.269A2.322,2.322,0,0,1,977.259,1526.727Z"/>
    </g>
  </g>
</svg>
