<svg xmlns="http://www.w3.org/2000/svg" xmlns:xlink="http://www.w3.org/1999/xlink" width="96" height="96" viewBox="0 0 96 96">
  <defs>
    <style>
      .cls-1 {
        fill: #fff;
        stroke: #707070;
      }

      .cls-2 {
        clip-path: url(#clip-path);
      }

      .cls-3 {
        fill: url(#linear-gradient);
      }

      .cls-4 {
        fill: url(#linear-gradient-2);
      }
    </style>
    <clipPath id="clip-path">
      <rect id="矩形_516" data-name="矩形 516" class="cls-1" width="96" height="96" transform="translate(304 1480)"/>
    </clipPath>
    <linearGradient id="linear-gradient" y1="0.5" x2="1" y2="0.5" gradientUnits="objectBoundingBox">
      <stop offset="0" stop-color="#4be2ff"/>
      <stop offset="0.995" stop-color="#877cff"/>
    </linearGradient>
    <linearGradient id="linear-gradient-2" y1="0.5" x2="1" y2="0.5" gradientUnits="objectBoundingBox">
      <stop offset="0" stop-color="#ec6cff"/>
      <stop offset="1" stop-color="#7847ff"/>
    </linearGradient>
  </defs>
  <g id="icon-exc" class="cls-2" transform="translate(-304 -1480)">
    <g id="组_821" data-name="组 821" transform="translate(1.711 -7.926)">
      <path id="路径_3750" data-name="路径 3750" class="cls-3" d="M331.142,1528.527c.092-8.462,5.515-13.931,13.938-14,7.047-.06,14.1-.119,21.139.043,2.523.058,3.012-.888,2.69-3.1a12.308,12.308,0,0,0-12.409-10.475q-17.176-.123-34.354-.006c-7.516.048-12.573,5-12.761,12.475q-.2,7.734,0,15.476c.155,6.313,3.681,10.721,9.835,12.1,1.925.431,2.232.912,1.474,2.654-1.382,3.176-2.572,6.436-3.841,9.66l.769.609c3.607-2.243,7.154-4.592,10.847-6.683a4.638,4.638,0,0,0,2.715-4.78c-.184-4.648-.093-9.309-.043-13.964Z"/>
      <path id="路径_3751" data-name="路径 3751" class="cls-4" d="M379.754,1517.126q-17.553-.37-35.118,0c-6.394.126-10.606,4.426-10.86,10.794-.249,6.284-.263,12.595.007,18.877.287,6.682,4.812,10.705,11.627,10.808,3.775.057,7.559.153,11.327-.035a12.349,12.349,0,0,1,7.749,2.221c5.58,3.658,11.319,7.069,17.9,11.139-1.191-3.024-1.968-4.982-2.732-6.944s-1.528-3.953-2.351-6.085c.71-.119,1.184-.239,1.663-.274,7.829-.566,11.612-4.515,11.69-12.331.054-5.539.1-11.08-.017-16.616-.148-6.883-4.176-11.408-10.883-11.55Z"/>
    </g>
  </g>
</svg>
