<svg xmlns="http://www.w3.org/2000/svg" xmlns:xlink="http://www.w3.org/1999/xlink" width="32" height="32" viewBox="0 0 32 32">
  <defs>
    <style>
      .cls-1 {
        fill: #fff;
        stroke: #707070;
      }

      .cls-2 {
        clip-path: url(#clip-path);
      }

      .cls-3 {
        fill: gray;
      }
    </style>
    <clipPath id="clip-path">
      <rect id="矩形_789" data-name="矩形 789" class="cls-1" width="32" height="32" transform="translate(7586 233)"/>
    </clipPath>
  </defs>
  <g id="icon-eye" class="cls-2" transform="translate(-7586 -233)">
    <g id="组_80" data-name="组 80">
      <g id="组_79" data-name="组 79">
        <path id="路径_104" data-name="路径 104" class="cls-3" d="M7613.412,246.645l-5.718-4.091a9.538,9.538,0,0,0-11.1,0l-5.718,4.091a2.725,2.725,0,0,0,0,4.432l5.718,4.091a9.538,9.538,0,0,0,11.1,0l5.718-4.091A2.725,2.725,0,0,0,7613.412,246.645Zm-11.267,7.666a5.45,5.45,0,1,1,5.45-5.45A5.45,5.45,0,0,1,7602.145,254.311Z"/>
        <path id="路径_105" data-name="路径 105" class="cls-3" d="M7602.145,245.455a3.406,3.406,0,1,0,3.406,3.406A3.406,3.406,0,0,0,7602.145,245.455Z"/>
      </g>
    </g>
  </g>
</svg>
