<svg xmlns="http://www.w3.org/2000/svg" xmlns:xlink="http://www.w3.org/1999/xlink" width="24" height="24" viewBox="0 0 24 24">
  <defs>
    <style>
      .cls-1 {
        fill: #fff;
        stroke: #707070;
      }

      .cls-2 {
        clip-path: url(#clip-path);
      }

      .cls-3 {
        fill: #333;
      }
    </style>
    <clipPath id="clip-path">
      <rect id="矩形_794" data-name="矩形 794" class="cls-1" width="24" height="24" transform="translate(6818 838)"/>
    </clipPath>
  </defs>
  <g id="icon-or" class="cls-2" transform="translate(-6818 -838)">
    <g id="组_89" data-name="组 89">
      <path id="路径_116" data-name="路径 116" class="cls-3" d="M6830.008,841.594c-5.523,0-9.994,1.184-10.006,2.634v2.634c.109,1.426,4.544,2.574,10.006,2.574s9.885-1.148,9.994-2.574v-2.634C6840,842.778,6835.519,841.594,6830.008,841.594Z"/>
      <path id="路径_117" data-name="路径 117" class="cls-3" d="M6830.008,851.507c-5.148,0-9.366-1.015-9.934-2.332a.689.689,0,0,0-.072.3v2.634c.109,1.426,4.544,2.574,9.994,2.574s9.885-1.148,9.994-2.574v-2.622a.647.647,0,0,0-.073-.3C6839.361,850.492,6835.144,851.507,6830.008,851.507Z"/>
      <path id="路径_118" data-name="路径 118" class="cls-3" d="M6830.008,856.756c-5.136,0-9.366-1.016-9.934-2.333a.7.7,0,0,0-.072.3v2.635c.109,1.426,4.544,2.574,9.994,2.574s9.885-1.148,9.994-2.574v-2.635a.653.653,0,0,0-.073-.3C6839.361,855.728,6835.144,856.756,6830.008,856.756Z"/>
    </g>
  </g>
</svg>
