<svg xmlns="http://www.w3.org/2000/svg" xmlns:xlink="http://www.w3.org/1999/xlink" width="96" height="96" viewBox="0 0 96 96">
  <defs>
    <style>
      .cls-1 {
        fill: #fff;
        stroke: #707070;
      }

      .cls-2 {
        clip-path: url(#clip-path);
      }

      .cls-3 {
        fill: url(#linear-gradient);
      }

      .cls-4 {
        fill: url(#linear-gradient-2);
      }

      .cls-5 {
        fill: url(#linear-gradient-3);
      }
    </style>
    <clipPath id="clip-path">
      <rect id="矩形_517" data-name="矩形 517" class="cls-1" width="96" height="96" transform="translate(632 1488)"/>
    </clipPath>
    <linearGradient id="linear-gradient" y1="0.5" x2="1" y2="0.5" gradientUnits="objectBoundingBox">
      <stop offset="0" stop-color="#ec6cff"/>
      <stop offset="1" stop-color="#7847ff"/>
    </linearGradient>
    <linearGradient id="linear-gradient-2" y1="0.5" x2="1" y2="0.5" gradientUnits="objectBoundingBox">
      <stop offset="0" stop-color="#4be2ff"/>
      <stop offset="0.995" stop-color="#877cff"/>
    </linearGradient>
    <linearGradient id="linear-gradient-3" y1="0.5" x2="1" y2="0.5" gradientUnits="objectBoundingBox">
      <stop offset="0.02" stop-color="#ffec75"/>
      <stop offset="1" stop-color="#ff55c9"/>
    </linearGradient>
  </defs>
  <g id="icon-da" class="cls-2" transform="translate(-632 -1488)">
    <g id="组_826" data-name="组 826" transform="translate(-4.944 0.074)">
      <g id="组_823" data-name="组 823">
        <g id="组_822" data-name="组 822">
          <path id="路径_3752" data-name="路径 3752" class="cls-3" d="M713.048,1548.307a2.17,2.17,0,0,0-1.087-2.048l-21.516-12.373a10.921,10.921,0,0,0-10.89,0l-21.516,12.373a2.169,2.169,0,0,0-1.087,2.047,2.451,2.451,0,0,0,0,.3,2.435,2.435,0,0,0,0,.3,2.435,2.435,0,0,0,0,.3,2.435,2.435,0,0,0,0,.3,2.451,2.451,0,0,0,0,.3,2.435,2.435,0,0,0,0,.3,2.435,2.435,0,0,0,0,.3,2.435,2.435,0,0,0,0,.3,2.435,2.435,0,0,0,0,.3,2.453,2.453,0,0,0,0,.3,2.435,2.435,0,0,0,0,.3,2.435,2.435,0,0,0,0,.3,2.435,2.435,0,0,0,0,.3,2.451,2.451,0,0,0,0,.3,2.435,2.435,0,0,0,0,.3,2.435,2.435,0,0,0,0,.3,2.435,2.435,0,0,0,0,.3,2.451,2.451,0,0,0,0,.3,2.435,2.435,0,0,0,0,.3,2.166,2.166,0,0,0,1.016,1.995l21.23,13.309a10.925,10.925,0,0,0,11.6,0l21.23-13.309a2.166,2.166,0,0,0,1.016-1.995,2.435,2.435,0,0,0,0-.3,2.451,2.451,0,0,0,0-.3,2.435,2.435,0,0,0,0-.3,2.435,2.435,0,0,0,0-.3,2.435,2.435,0,0,0,0-.3,2.435,2.435,0,0,0,0-.3,2.451,2.451,0,0,0,0-.3,2.435,2.435,0,0,0,0-.3,2.435,2.435,0,0,0,0-.3,2.435,2.435,0,0,0,0-.3,2.453,2.453,0,0,0,0-.3,2.435,2.435,0,0,0,0-.3,2.435,2.435,0,0,0,0-.3,2.435,2.435,0,0,0,0-.3,2.435,2.435,0,0,0,0-.3,2.451,2.451,0,0,0,0-.3,2.435,2.435,0,0,0,0-.3,2.435,2.435,0,0,0,0-.3A2.435,2.435,0,0,0,713.048,1548.307Z"/>
          <path id="路径_3753" data-name="路径 3753" class="cls-4" d="M711.961,1545.962l-21.516-12.373a10.921,10.921,0,0,0-10.89,0l-21.516,12.373a2.185,2.185,0,0,0-.071,3.745l21.23,13.309a10.925,10.925,0,0,0,11.6,0l21.23-13.309A2.185,2.185,0,0,0,711.961,1545.962Z"/>
        </g>
        <path id="路径_3754" data-name="路径 3754" class="cls-5" d="M710.014,1541.805a1.934,1.934,0,0,0-.97-1.826l-19.188-11.034a9.741,9.741,0,0,0-9.712,0l-19.188,11.034a1.936,1.936,0,0,0-.97,1.826,2.119,2.119,0,0,0,0,.265,2.121,2.121,0,0,0,0,.265,2.137,2.137,0,0,0,0,.266,2.121,2.121,0,0,0,0,.265,2.121,2.121,0,0,0,0,.265,2.121,2.121,0,0,0,0,.265,2.121,2.121,0,0,0,0,.265,2.121,2.121,0,0,0,0,.265,2.121,2.121,0,0,0,0,.265,2.121,2.121,0,0,0,0,.265,2.119,2.119,0,0,0,0,.265,2.121,2.121,0,0,0,0,.265,2.121,2.121,0,0,0,0,.265,2.121,2.121,0,0,0,0,.265,2.137,2.137,0,0,0,0,.266,2.121,2.121,0,0,0,0,.265,2.121,2.121,0,0,0,0,.265,2.121,2.121,0,0,0,0,.265,2.121,2.121,0,0,0,0,.265,1.932,1.932,0,0,0,.906,1.779l18.934,11.869a9.739,9.739,0,0,0,10.348,0l18.934-11.869a1.932,1.932,0,0,0,.906-1.779,2.121,2.121,0,0,0,0-.265,2.121,2.121,0,0,0,0-.265,2.121,2.121,0,0,0,0-.265,2.121,2.121,0,0,0,0-.265,2.137,2.137,0,0,0,0-.266,2.121,2.121,0,0,0,0-.265,2.121,2.121,0,0,0,0-.265,2.121,2.121,0,0,0,0-.265,2.119,2.119,0,0,0,0-.265,2.121,2.121,0,0,0,0-.265,2.121,2.121,0,0,0,0-.265,2.121,2.121,0,0,0,0-.265,2.121,2.121,0,0,0,0-.265,2.121,2.121,0,0,0,0-.265,2.121,2.121,0,0,0,0-.265,2.121,2.121,0,0,0,0-.265,2.119,2.119,0,0,0,0-.265,2.139,2.139,0,0,0,0-.266A2.119,2.119,0,0,0,710.014,1541.805Z"/>
      </g>
      <g id="组_825" data-name="组 825">
        <g id="组_824" data-name="组 824">
          <path id="路径_3755" data-name="路径 3755" class="cls-3" d="M713.048,1532.7a2.168,2.168,0,0,0-1.087-2.047l-21.516-12.373a10.921,10.921,0,0,0-10.89,0l-21.516,12.373a2.168,2.168,0,0,0-1.087,2.047,2.435,2.435,0,0,0,0,.3,2.435,2.435,0,0,0,0,.3,2.451,2.451,0,0,0,0,.3,2.435,2.435,0,0,0,0,.3,2.435,2.435,0,0,0,0,.3,2.435,2.435,0,0,0,0,.3,2.451,2.451,0,0,0,0,.3,2.435,2.435,0,0,0,0,.3,2.435,2.435,0,0,0,0,.3,2.435,2.435,0,0,0,0,.3,2.435,2.435,0,0,0,0,.3,2.453,2.453,0,0,0,0,.3,2.435,2.435,0,0,0,0,.3,2.435,2.435,0,0,0,0,.3,2.435,2.435,0,0,0,0,.3,2.451,2.451,0,0,0,0,.3,2.435,2.435,0,0,0,0,.3,2.435,2.435,0,0,0,0,.3,2.435,2.435,0,0,0,0,.3,2.165,2.165,0,0,0,1.016,1.995l21.23,13.309a10.925,10.925,0,0,0,11.6,0l21.23-13.309a2.165,2.165,0,0,0,1.016-1.995,2.435,2.435,0,0,0,0-.3,2.435,2.435,0,0,0,0-.3,2.435,2.435,0,0,0,0-.3,2.435,2.435,0,0,0,0-.3,2.451,2.451,0,0,0,0-.3,2.435,2.435,0,0,0,0-.3,2.435,2.435,0,0,0,0-.3,2.435,2.435,0,0,0,0-.3,2.453,2.453,0,0,0,0-.3,2.435,2.435,0,0,0,0-.3,2.435,2.435,0,0,0,0-.3,2.435,2.435,0,0,0,0-.3,2.451,2.451,0,0,0,0-.3,2.435,2.435,0,0,0,0-.3,2.435,2.435,0,0,0,0-.3,2.435,2.435,0,0,0,0-.3,2.435,2.435,0,0,0,0-.3,2.451,2.451,0,0,0,0-.3A2.435,2.435,0,0,0,713.048,1532.7Z"/>
          <path id="路径_3756" data-name="路径 3756" class="cls-4" d="M711.961,1530.358l-21.516-12.373a10.921,10.921,0,0,0-10.89,0l-21.516,12.373a2.184,2.184,0,0,0-.071,3.744l21.23,13.309a10.921,10.921,0,0,0,11.6,0l21.23-13.309A2.184,2.184,0,0,0,711.961,1530.358Z"/>
        </g>
        <path id="路径_3757" data-name="路径 3757" class="cls-5" d="M710.014,1526.2a1.933,1.933,0,0,0-.97-1.826l-19.188-11.034a9.736,9.736,0,0,0-9.712,0l-19.188,11.034a1.934,1.934,0,0,0-.97,1.826,2.119,2.119,0,0,0,0,.265,2.121,2.121,0,0,0,0,.265,2.121,2.121,0,0,0,0,.265,2.121,2.121,0,0,0,0,.265,2.121,2.121,0,0,0,0,.265,2.121,2.121,0,0,0,0,.265,2.121,2.121,0,0,0,0,.265,2.121,2.121,0,0,0,0,.265,2.121,2.121,0,0,0,0,.265,2.137,2.137,0,0,0,0,.266,2.119,2.119,0,0,0,0,.265,2.121,2.121,0,0,0,0,.265,2.121,2.121,0,0,0,0,.265,2.121,2.121,0,0,0,0,.265,2.121,2.121,0,0,0,0,.265,2.121,2.121,0,0,0,0,.265,2.121,2.121,0,0,0,0,.265,2.121,2.121,0,0,0,0,.265,2.121,2.121,0,0,0,0,.265,1.932,1.932,0,0,0,.906,1.779l18.934,11.87a9.743,9.743,0,0,0,10.348,0l18.934-11.87a1.932,1.932,0,0,0,.906-1.779,2.121,2.121,0,0,0,0-.265,2.121,2.121,0,0,0,0-.265,2.121,2.121,0,0,0,0-.265,2.121,2.121,0,0,0,0-.265,2.121,2.121,0,0,0,0-.265,2.121,2.121,0,0,0,0-.265,2.121,2.121,0,0,0,0-.265,2.121,2.121,0,0,0,0-.265,2.119,2.119,0,0,0,0-.265,2.121,2.121,0,0,0,0-.265,2.121,2.121,0,0,0,0-.265,2.137,2.137,0,0,0,0-.266,2.121,2.121,0,0,0,0-.265,2.121,2.121,0,0,0,0-.265,2.121,2.121,0,0,0,0-.265,2.121,2.121,0,0,0,0-.265,2.121,2.121,0,0,0,0-.265,2.121,2.121,0,0,0,0-.265A2.119,2.119,0,0,0,710.014,1526.2Z"/>
      </g>
      <path id="路径_3758" data-name="路径 3758" class="cls-3" d="M713.048,1517.1a2.17,2.17,0,0,0-1.087-2.048l-21.516-12.373a10.921,10.921,0,0,0-10.89,0l-21.516,12.373a2.169,2.169,0,0,0-1.087,2.047,2.451,2.451,0,0,0,0,.3,2.435,2.435,0,0,0,0,.3,2.435,2.435,0,0,0,0,.3,2.435,2.435,0,0,0,0,.3,2.451,2.451,0,0,0,0,.3,2.435,2.435,0,0,0,0,.3,2.435,2.435,0,0,0,0,.3,2.435,2.435,0,0,0,0,.3,2.451,2.451,0,0,0,0,.3,2.435,2.435,0,0,0,0,.3,2.435,2.435,0,0,0,0,.3,2.435,2.435,0,0,0,0,.3,2.437,2.437,0,0,0,0,.3,2.451,2.451,0,0,0,0,.3,2.435,2.435,0,0,0,0,.3,2.435,2.435,0,0,0,0,.3,2.435,2.435,0,0,0,0,.3,2.451,2.451,0,0,0,0,.3,2.435,2.435,0,0,0,0,.3,2.166,2.166,0,0,0,1.016,1.995l21.23,13.309a10.925,10.925,0,0,0,11.6,0l21.23-13.309a2.166,2.166,0,0,0,1.016-1.995,2.435,2.435,0,0,0,0-.3,2.451,2.451,0,0,0,0-.3,2.435,2.435,0,0,0,0-.3,2.435,2.435,0,0,0,0-.3,2.435,2.435,0,0,0,0-.3,2.435,2.435,0,0,0,0-.3,2.453,2.453,0,0,0,0-.3,2.435,2.435,0,0,0,0-.3,2.435,2.435,0,0,0,0-.3,2.435,2.435,0,0,0,0-.3,2.451,2.451,0,0,0,0-.3,2.435,2.435,0,0,0,0-.3,2.435,2.435,0,0,0,0-.3,2.435,2.435,0,0,0,0-.3,2.435,2.435,0,0,0,0-.3,2.451,2.451,0,0,0,0-.3,2.435,2.435,0,0,0,0-.3,2.435,2.435,0,0,0,0-.3A2.435,2.435,0,0,0,713.048,1517.1Z"/>
      <path id="路径_3759" data-name="路径 3759" class="cls-4" d="M711.961,1514.753l-21.516-12.373a10.921,10.921,0,0,0-10.89,0l-21.516,12.373a2.185,2.185,0,0,0-.071,3.745l21.23,13.309a10.925,10.925,0,0,0,11.6,0l21.23-13.309A2.185,2.185,0,0,0,711.961,1514.753Z"/>
    </g>
  </g>
</svg>
