<svg xmlns="http://www.w3.org/2000/svg" xmlns:xlink="http://www.w3.org/1999/xlink" width="96" height="96" viewBox="0 0 96 96">
  <defs>
    <style>
      .cls-1 {
        fill: #fff;
        stroke: #707070;
      }

      .cls-2 {
        clip-path: url(#clip-path);
      }

      .cls-3 {
        fill: url(#linear-gradient);
      }

      .cls-4 {
        fill: url(#linear-gradient-2);
      }

      .cls-5 {
        fill: url(#linear-gradient-3);
      }
    </style>
    <clipPath id="clip-path">
      <rect id="矩形_519" data-name="矩形 519" class="cls-1" width="96" height="96" transform="translate(1184 1480)"/>
    </clipPath>
    <linearGradient id="linear-gradient" y1="0.5" x2="1" y2="0.5" gradientUnits="objectBoundingBox">
      <stop offset="0" stop-color="#ec6cff"/>
      <stop offset="1" stop-color="#7847ff"/>
    </linearGradient>
    <linearGradient id="linear-gradient-2" y1="0.5" x2="1" y2="0.5" gradientUnits="objectBoundingBox">
      <stop offset="0" stop-color="#4be2ff"/>
      <stop offset="0.995" stop-color="#877cff"/>
    </linearGradient>
    <linearGradient id="linear-gradient-3" y1="0.5" x2="1" y2="0.5" gradientUnits="objectBoundingBox">
      <stop offset="0.02" stop-color="#ffec75"/>
      <stop offset="1" stop-color="#ff55c9"/>
    </linearGradient>
  </defs>
  <g id="icon-bc" class="cls-2" transform="translate(-1184 -1480)">
    <g id="组_828" data-name="组 828" transform="translate(-3.016 -7.926)">
      <path id="路径_3762" data-name="路径 3762" class="cls-3" d="M1263.984,1523.349v40.577a7,7,0,0,1-7,7h-43.968a7,7,0,0,1-7-7v-56a7,7,0,0,1,7-7h28.545"/>
      <path id="路径_3763" data-name="路径 3763" class="cls-4" d="M1263.984,1523.349h-15.423a7,7,0,0,1-7-7v-15.423Z"/>
      <rect id="矩形_355" data-name="矩形 355" class="cls-5" width="20" height="6" transform="translate(1218 1521.789)"/>
      <rect id="矩形_356" data-name="矩形 356" class="cls-5" width="34" height="6" transform="translate(1218 1536.338)"/>
      <rect id="矩形_357" data-name="矩形 357" class="cls-5" width="34" height="6" transform="translate(1218 1550.887)"/>
    </g>
  </g>
</svg>
