<svg xmlns="http://www.w3.org/2000/svg" xmlns:xlink="http://www.w3.org/1999/xlink" width="24" height="24" viewBox="0 0 24 24">
  <defs>
    <style>
      .cls-1 {
        fill: #fff;
        stroke: #707070;
      }

      .cls-2 {
        clip-path: url(#clip-path);
      }

      .cls-3 {
        fill: #333;
      }
    </style>
    <clipPath id="clip-path">
      <rect id="矩形_799" data-name="矩形 799" class="cls-1" width="24" height="24" transform="translate(6287 2358)"/>
    </clipPath>
  </defs>
  <g id="icon-od" class="cls-2" transform="translate(-6287 -2358)">
    <g id="组_110" data-name="组 110">
      <path id="路径_131" data-name="路径 131" class="cls-3" d="M6298.735,2360.766c-4.215,0-8.75,1.271-8.75,4.063V2376.7c0,2.79,4.535,4.062,8.75,4.062s8.75-1.272,8.75-4.062v-11.875C6307.485,2362.037,6302.949,2360.766,6298.735,2360.766Zm7.5,15.938c0,1.552-3.358,2.812-7.5,2.812s-7.5-1.26-7.5-2.812v-2.335c1.292,1.33,4.407,2.022,7.5,2.022s6.209-.692,7.5-2.022Zm0-3.75h0l0,.019c0,1.543-3.358,2.793-7.5,2.793s-7.5-1.25-7.5-2.793l0-.019h0v-2.335c1.292,1.33,4.407,2.022,7.5,2.022s6.209-.692,7.5-2.022Zm0-3.75h0l0,.019c0,1.543-3.358,2.793-7.5,2.793s-7.5-1.25-7.5-2.793l0-.019h0v-2.148c1.638,1.248,4.641,1.835,7.5,1.835s5.862-.587,7.5-1.835Zm-7.5-1.563c-4.142,0-7.5-1.26-7.5-2.812s3.358-2.813,7.5-2.813,7.5,1.259,7.5,2.813S6302.877,2367.641,6298.735,2367.641Z"/>
      <path id="路径_132" data-name="路径 132" class="cls-3" d="M6304.36,2376.391a.625.625,0,1,0,.625.625A.625.625,0,0,0,6304.36,2376.391Z"/>
      <path id="路径_133" data-name="路径 133" class="cls-3" d="M6304.36,2372.641a.625.625,0,1,0,.625.625A.625.625,0,0,0,6304.36,2372.641Z"/>
      <path id="路径_134" data-name="路径 134" class="cls-3" d="M6304.36,2370.141a.625.625,0,1,0-.625-.625A.625.625,0,0,0,6304.36,2370.141Z"/>
    </g>
  </g>
</svg>
