<svg xmlns="http://www.w3.org/2000/svg" xmlns:xlink="http://www.w3.org/1999/xlink" width="24" height="24" viewBox="0 0 24 24">
  <defs>
    <style>
      .cls-1 {
        fill: #fff;
        stroke: #707070;
      }

      .cls-2 {
        clip-path: url(#clip-path);
      }

      .cls-3 {
        fill: #333;
      }
    </style>
    <clipPath id="clip-path">
      <rect id="矩形_793" data-name="矩形 793" class="cls-1" width="24" height="24" transform="translate(6818 659)"/>
    </clipPath>
  </defs>
  <g id="icon-tp" class="cls-2" transform="translate(-6818 -659)">
    <g id="组_87" data-name="组 87">
      <g id="组_86" data-name="组 86">
        <path id="路径_112" data-name="路径 112" class="cls-3" d="M6837.847,664.736V661.39a.627.627,0,0,0-1.254,0v3.334a2.106,2.106,0,0,0,0,4.035v11.366a.627.627,0,0,0,1.254,0V668.771a2.105,2.105,0,0,0,0-4.035Zm-.627,2.882a.877.877,0,1,1,.877-.877A.877.877,0,0,1,6837.22,667.618Z"/>
        <path id="路径_113" data-name="路径 113" class="cls-3" d="M6830.3,668.721V661.39a.627.627,0,0,0-1.253,0v7.331a2.105,2.105,0,0,0,0,4.035v7.381a.627.627,0,1,0,1.253,0v-7.381a2.105,2.105,0,0,0,0-4.035Zm-.627,2.882v.013a.871.871,0,1,0,0-.013Z"/>
        <path id="路径_114" data-name="路径 114" class="cls-3" d="M6822.759,672.706V661.39a.626.626,0,0,0-1.253,0v11.278a2.105,2.105,0,0,0,0,4.035v3.4a.626.626,0,0,0,1.253,0v-3.359a2.105,2.105,0,0,0,0-4.035Zm-.627,2.882v.013a.871.871,0,1,0,0-.013Z"/>
      </g>
    </g>
  </g>
</svg>
