<svg xmlns="http://www.w3.org/2000/svg" xmlns:xlink="http://www.w3.org/1999/xlink" width="24" height="24" viewBox="0 0 24 24">
  <defs>
    <style>
      .cls-1 {
        fill: #fff;
        stroke: #707070;
      }

      .cls-2 {
        clip-path: url(#clip-path);
      }

      .cls-3 {
        fill: #333;
      }
    </style>
    <clipPath id="clip-path">
      <rect id="矩形_790" data-name="矩形 790" class="cls-1" width="24" height="24" transform="translate(6818 338)"/>
    </clipPath>
  </defs>
  <g id="icon-ta" class="cls-2" transform="translate(-6818 -338)">
    <path id="路径_109" data-name="路径 109" class="cls-3" d="M6820,341.208l.471,7.709a.673.673,0,0,0,.2.439l10.32,10.322a1.132,1.132,0,0,0,1.6,0l7.079-7.079a1.133,1.133,0,0,0,0-1.6l-10.32-10.323a.686.686,0,0,0-.439-.2l-7.713-.469A1.129,1.129,0,0,0,6820,341.208Zm3.514,4.065a1.75,1.75,0,1,1,1.75,1.75A1.749,1.749,0,0,1,6823.518,345.273Z"/>
  </g>
</svg>
